<svg xmlns="http://www.w3.org/2000/svg" width="256" height="256"><path fill-opacity=".016" d="M0 128.004v128.004l128.25-.254 128.25-.254.254-127.75L257.008 0H0v128.004m.485.496c0 70.4.119 99.053.265 63.672.146-35.38.146-92.98 0-128C.604 29.153.485 58.1.485 128.5" fill="#1976D2" fill-rule="evenodd"/><path fill-opacity=".311" d="M104.664 2.019c-36.868 2.71-73.877 12.204-88.003 22.577-5.746 4.218-8.104 8.931-9.738 19.459-1.998 12.865.745 31.493 6.215 42.216 3.025 5.929 10.609 12.838 18.191 16.57 9.063 4.462 24.16 8.147 36.171 8.829 9.344.531 10.187.419 12.85-1.702 1.567-1.249 4.641-6.023 6.831-10.609 4.626-9.689 6.744-11.5 16.671-14.251 19.555-5.419 46.326-2.72 56.305 5.678 1.801 1.515 4.694 6.039 6.826 10.672 2.035 4.423 4.517 8.717 5.516 9.542 2.592 2.141 16.037 1.671 25.831-.902 17.356-4.56 34.289-13.331 41.1-21.288 5.99-6.998 9.508-26.747 7.66-43.008-1.801-15.854-4.468-19.002-22.09-26.079C191.59 6.307 143.199-.812 104.664 2.019M75.5 34.027c-14.126 1.525-28.516 6.652-40.587 14.461l-7.158 4.63.436 8.299c.665 12.678 5.63 21.283 14.148 24.522 2.089.794 2.566.484 4.057-2.643 1.895-3.974 1.922-3.873-1.359-5.087-2.295-.849-1.995-1.297 7.541-11.296 5.463-5.727 14.357-15.451 19.764-21.609 5.408-6.158 10.356-11.41 10.996-11.671 1.417-.579.973-.557-7.838.394M222.872 86.75c-1.243 1.586-1.208 1.621.378.378.963-.755 1.75-1.543 1.75-1.75 0-.823-.821-.294-2.128 1.372m-5.33 2.931c-1.627.88-5.452 1.71-8.5 1.843-3.048.134-9.592.59-14.542 1.015-4.95.425-10.254.784-11.787.798-2.088.02-2.652.42-2.248 1.595.518 1.506-.134.792-4.052-4.432-.859-1.146-.734-.567.293 1.355 2.916 5.452 5.811 7.145 12.219 7.145 3.11 0 8.337-.689 11.615-1.532 5.906-1.517 20.46-7.862 20.46-8.919 0-.73-.045-.715-3.458 1.132m-101.809.369c-11.589 1.349-18.732 6.2-23.895 16.228-1.533 2.979-2.198 6.136-2.256 10.722l-.082 6.5 5-.314c3.641-.228 8.125.679 16.5 3.337 13.77 4.37 20.229 4.371 29.639.007 3.415-1.584 8.783-3.04 12.861-3.489 3.85-.423 6.411-.831 5.691-.905-.72-.075-1.095-.483-.832-.907.262-.424-.396-5.025-1.463-10.224-1.066-5.198-1.738-9.975-1.493-10.614.691-1.8-4.456-6.146-9.308-7.857-3.807-1.344-19.774-3.742-22.595-3.394-.55.067-4.045.477-7.767.91m-42.861 5.7c-1.243 1.586-1.208 1.621.378.378C74.916 94.821 75.445 94 74.622 94c-.207 0-.995.787-1.75 1.75m-18.059 1.933c.721.289 1.584.253 1.916-.079.332-.332-.258-.568-1.312-.525-1.165.048-1.402.285-.604.604M90.5 132.155c-4.037 2.208-4.562 3.807-2.537 7.724 2.919 5.646 9.902 11.722 17.242 15.001 8.313 3.714 15.396 10.055 16.922 15.148 2.093 6.986-1.234 15.418-7.333 18.586-4.865 2.526-24.844 9.275-24.154 8.16.849-1.375-20.775-55.889-22.42-56.52-.754-.289-3.606.522-6.339 1.802-17.076 7.998-22.71 29.704-11.819 45.535 3.827 5.561 11.599 11.474 20.226 15.385 7.677 3.481 9.053 3.616 14.34 1.404 5.209-2.18 18.265-3.524 39.431-4.058 14.404-.364 18.356-.156 22 1.158 2.442.881 7.591 1.722 11.441 1.868 4.684.178 8.324.949 11 2.33 3.508 1.809 4.431 1.911 7.511.828 12.989-4.571 25.025-13.851 29.835-23.004 2.203-4.191 2.629-6.299 2.629-13.007 0-6.715-.446-8.916-2.767-13.66-2.606-5.326-9.476-12.835-11.743-12.835-.566 0-6.072 7.762-12.237 17.25-6.164 9.488-13.975 21.412-17.356 26.5-3.381 5.088-5.834 9.25-5.451 9.25s1.57.697 2.638 1.548c1.771 1.413 1.679 1.423-1.059.107-1.65-.793-6.6-2.836-11-4.54-14.571-5.642-18.489-9.539-18.496-18.397-.008-9.319 4.758-15.323 16.325-20.568 7.212-3.27 12.551-7.661 16.77-13.795 2.469-3.588 2.793-4.688 1.881-6.392-2.531-4.729-12.454-5.243-25.618-1.326-10.815 3.217-15.964 3.201-28.74-.092-10.483-2.701-17.84-3.185-21.122-1.39M125.832 217c-21.817.275-40.014.847-40.437 1.271-1.735 1.737-.786 13.29 1.476 17.962 8.71 17.993 40.612 25.563 62.145 14.745 5.887-2.957 13.631-10.479 16.546-16.071 1.96-3.759 2.537-14.419.915-16.907-.85-1.306-6.113-1.435-40.645-1" fill="#1976D2" fill-rule="evenodd"/><path fill-opacity=".665" d="M96 3.089C69.593 5.627 37.877 13.41 22.989 21.006c-6.44 3.285-11.656 8.6-13.534 13.789-1.096 3.028-1.869 8.984-2.168 16.705-1.47 37.892 14.932 54.922 57.549 59.753 13.96 1.582 16.017.547 21.653-10.895 2.206-4.478 4.656-8.899 5.444-9.823 4.923-5.775 20.052-8.983 38.977-8.267 22.704.86 30.465 5.036 36.936 19.879 2.287 5.245 4.082 7.955 5.782 8.729 9.112 4.152 38.903-3.31 55.156-13.815 13.942-9.011 17.091-15.779 17.944-38.561.587-15.708-1.008-25.035-5.015-29.312-4.465-4.766-25.479-13.176-45.213-18.094C165.081 3.263 126.316.176 96 3.089m12 8.965c-13.912 1.437-33.471 10.088-46.747 20.675-3.986 3.178-9.861 6.793-13.056 8.031-3.195 1.239-9.272 4.526-13.503 7.304L27 53.115l.024 5.192c.014 2.856.463 7.092.999 9.413.775 3.359.634 4.932-.692 7.712-1.512 3.171-1.787 3.335-2.989 1.78-.973-1.258-.919-.523.206 2.774.841 2.467 2.75 5.771 4.241 7.343 5.716 6.025 17.737 10.365 31.413 11.342 10.485.749 12.056-.013 17.375-8.426 7.276-11.507 15.04-16.958 27.492-19.302 8.148-1.534 31.411-1.541 39.931-.014 15.37 2.757 21.747 6.537 28.445 16.86 5.813 8.959 8.267 11.081 13.612 11.767 9.143 1.174 30.52-6.565 38.802-14.047 2.892-2.613 4.602-5.294 5.8-9.095.934-2.964 1.454-5.634 1.155-5.933-.299-.299-2.01.258-3.802 1.238-2.135 1.166-3.4 1.405-3.666.69-1.291-3.465-11.056-17.94-16.232-24.062-12.04-14.241-31.501-26.985-50.114-32.819-12.684-3.976-32.845-5.349-51-3.474M96.553 100.12c-4.318 5.131-5.828 8.995-6.346 16.234l-.492 6.87 4.393-.726c2.415-.4 4.569-.889 4.785-1.088.456-.42-2.294-14.13-3.313-16.52-.437-1.024.276-2.753 1.956-4.75 1.453-1.727 2.417-3.14 2.142-3.14-.275 0-1.682 1.404-3.125 3.12m4.26 22.563c.721.289 1.584.253 1.916-.079.332-.332-.258-.568-1.312-.525-1.165.048-1.402.285-.604.604M149 132.002c-2.475.419-7.585 1.715-11.355 2.88-8.777 2.711-11.886 2.663-24.459-.383-12.624-3.059-22.134-3.318-24.531-.67-2.271 2.51-2.103 3.663 1.239 8.491 4.249 6.138 6.735 8.099 15.555 12.268 13.512 6.386 18.775 13.484 17.199 23.194-1.232 7.592-6.214 11.555-20.226 16.09-8.609 2.787-22.191 9.692-21.137 10.747.222.221 2.33-.277 4.685-1.108 2.355-.831 6.896-1.511 10.091-1.511 3.195 0 7.076-.489 8.624-1.087 4.407-1.701 38.675-1.207 43.049.62 1.931.807 6.17 1.467 9.42 1.467 3.251 0 7.526.675 9.5 1.5 5.485 2.292 5.359 1.775-.474-1.942-2.927-1.864-9.002-4.851-13.5-6.636-4.499-1.786-9.761-4.028-11.693-4.984-8.43-4.168-12.1-11.455-9.992-19.842 1.735-6.903 4.969-10.339 14.198-15.087 10.716-5.513 14.053-8.053 17.872-13.603 3.561-5.176 3.43-9.063-.33-9.833-5.41-1.108-9.545-1.28-13.735-.571" fill="#1976D2" fill-rule="evenodd"/><path fill-opacity=".965" d="M100.722 3.11c-29.05 2.233-65.026 11.018-79.244 19.35-4.425 2.593-5.888 4.018-2.978 2.902 1.552-.596 2.23 2.172.688 2.805-1.375.564-9.18 30.244-9.32 35.439C9.742 68.316 9.709 68.368 9 65c-.614-2.915-.759-3.067-.868-.91-.214 4.211 3.61 17.666 6.564 23.093 5.088 9.348 16.571 16.548 33.304 20.879 10.523 2.725 28.051 3.784 31.557 1.907 1.524-.815 4.105-4.725 6.94-10.516 2.483-5.069 5.175-9.766 5.983-10.436.808-.671 3.848-2.186 6.756-3.368 2.908-1.182 5.448-2.599 5.645-3.149.197-.55.789-2.125 1.315-3.5.526-1.375 1.016-3.262 1.088-4.193.183-2.331 9.481-3.242 25.65-2.514 22.802 1.027 30.408 4.466 39.194 17.718 6.731 10.153 9.292 11.936 17.372 12.1 3.3.066 5.213.327 4.25.578-1.7.445-2.222 1.957-1.92 5.561.104 1.248-.64 1.789-2.592 1.886-1.945.097-2.159.252-.738.534 3.814.758 21.975-4.681 32.033-9.593 12.737-6.221 19.639-12.247 22.361-19.523 4.454-11.905 5.216-36.005 1.485-46.956-1.863-5.468-5.96-8.616-16.921-13.004-7.952-3.184-12.909-2.733-12.175 1.107.369 1.932.137 2.275-1.161 1.717-15.205-6.542-61.088-15.38-80.116-15.433-6.21-.018-7.506-.619-7.506-3.485 0-1.298.877-2.222 2.5-2.632 3.571-.902-15.515-.739-28.278.242M97 12.151c-12.79 1.184-29.725 4.252-40.033 7.253-8.202 2.387-20.519 7.421-18.445 7.538.562.032-1.556 2.81-4.708 6.174-3.151 3.363-7.399 8.538-9.438 11.5-2.04 2.961-4.15 5.384-4.69 5.384-1.612 0 .156 18.585 2.412 25.366 3.771 11.328 8.297 15.799 20.637 20.386 5.1 1.896 9.395 2.636 17.451 3.007l10.686.493 2.674-2.876c1.47-1.582 4.401-5.669 6.514-9.083 4.48-7.24 11.228-12.184 20.44-14.975 4.902-1.485 9.386-1.809 24.5-1.77 31.017.08 39.611 3.607 50.329 20.654 1.972 3.136 4.932 6.399 6.578 7.25 6.176 3.194 19.34 1.004 32.661-5.434 15.774-7.623 19.545-14.123 20.03-34.518.156-6.6.048-11.185-.242-10.189-.422 1.454-1.071.961-3.284-2.5-1.516-2.371-4.839-6.612-7.384-9.424-2.545-2.813-4.393-5.349-4.106-5.636.287-.286-2.764-1.878-6.78-3.537C181.5 14.288 136.77 8.47 97 12.151M215 18c.825.533 2.175.969 3 .969 1.333 0 1.333-.107 0-.969-.825-.533-2.175-.969-3-.969-1.333 0-1.333.107 0 .969M21.441 23.555c-1.864 1.494-1.852 1.512.309.465 1.238-.6 2.25-1.3 2.25-1.555 0-.765-.519-.544-2.559 1.09m-7.569 4.195c-1.243 1.586-1.208 1.621.378.378C15.916 26.821 16.445 26 15.622 26c-.207 0-.995.788-1.75 1.75m10 8c-1.243 1.586-1.208 1.621.378.378.962-.755 1.75-1.543 1.75-1.75 0-.823-.821-.294-2.128 1.372M229.5 37c.995 1.1 2.035 2 2.31 2 .275 0-.315-.9-1.31-2-.995-1.1-2.035-2-2.31-2-.275 0 .315.9 1.31 2M8.158 43c0 1.375.227 1.938.504 1.25.278-.687.278-1.812 0-2.5-.277-.687-.504-.125-.504 1.25m7.921 1.583c.048 1.165.285 1.402.604.605.289-.722.253-1.585-.079-1.917-.332-.332-.568.258-.525 1.312m74.16 88.166c-.694.234-1.737 1.312-2.317 2.397-.852 1.592-.454 2.908 2.066 6.836 3.728 5.808 7.305 8.636 16.059 12.69 7.309 3.386 13.32 8.204 15.504 12.427 1.893 3.661 1.849 11.255-.089 15.34-2.266 4.775-6.533 7.431-18.703 11.645-5.999 2.076-13.011 5.202-15.583 6.945-2.572 1.744-3.812 2.885-2.756 2.537 4.931-1.627 11.232-2.619 13.316-2.096 1.263.317 4.652-.071 7.53-.862 7.389-2.031 37.581-1.555 43.234.681 3.271 1.294 18.5 2.949 18.5 2.011 0-.573-10.002-5.289-18.393-8.673-4.857-1.958-10.293-4.675-12.078-6.037-6.339-4.835-8.203-13.308-4.649-21.131 2.349-5.172 6.766-8.852 15.731-13.108 7.319-3.474 15.167-10.574 17.607-15.93 1.074-2.356.949-2.868-1.108-4.533-2.307-1.868-2.327-1.862-4.464 1.247-2.273 3.309-4.372 4.581-17.146 10.393-6.98 3.175-8.985 3.641-15.728 3.651-5.981.009-8.467-.44-11-1.986-1.8-1.099-6.422-2.949-10.272-4.11-7.946-2.398-9.487-3.375-12.123-7.689-1.033-1.688-2.445-2.879-3.138-2.645" fill="#1976D2" fill-rule="evenodd"/></svg>