<svg version="1.2" xmlns="http://www.w3.org/2000/svg" viewBox="0 0 1024 1024" width="1024" height="1024">
	<title>logo-svg</title>
	<defs>
		<linearGradient id="g1" x1="509.3" y1="537.4" x2="509.3" y2="615.9" gradientUnits="userSpaceOnUse">
			<stop offset="0" stop-color="#ff4752"/>
			<stop offset="1" stop-color="#880f45"/>
		</linearGradient>
		<linearGradient id="g2" x1="417.7" y1="687.7" x2="28.3" y2="840.8" gradientUnits="userSpaceOnUse">
			<stop offset="0" stop-color="#ffffff"/>
			<stop offset="1" stop-color="#4b4b4b"/>
		</linearGradient>
		<linearGradient id="g3" x1="619.5" y1="670.8" x2="954.5" y2="888.1" gradientUnits="userSpaceOnUse">
			<stop offset="0" stop-color="#ffffff"/>
			<stop offset="1" stop-color="#4b4b4b"/>
		</linearGradient>
		<linearGradient id="g4" x1="511.2" y1="773.9" x2="518.2" y2="1266.9" gradientUnits="userSpaceOnUse">
			<stop offset="0" stop-color="#ffffff"/>
			<stop offset="1" stop-color="#4b4b4b"/>
		</linearGradient>
		<linearGradient id="g5" x1="65.3" y1="134.6" x2="950.5" y2="382.5" gradientUnits="userSpaceOnUse">
			<stop offset="0" stop-color="#3d3d3d"/>
			<stop offset=".3" stop-color="#000000"/>
			<stop offset=".6" stop-color="#808080"/>
			<stop offset="1" stop-color="#000000"/>
		</linearGradient>
		<radialGradient id="g6" cx="511.2" cy="492.8" r="432.8" gradientUnits="userSpaceOnUse">
			<stop offset="0" stop-color="#00ffff"/>
			<stop offset=".4" stop-color="#4cdbff"/>
			<stop offset="1" stop-color="#ff88ff"/>
		</radialGradient>
		<clipPath clipPathUnits="userSpaceOnUse" id="cp1">
			<path d="m388.64 304.29c-75.97 31.83-67.61 84.52-98.51 97.46-23.29 9.76-150.28 1.78-182.11-62.47-31.26-63.13-33.13-153.86-5.27-185.14 32.05-35.97 158.68-97.77 400.91-96.62 226.02 1.07 403.32 74.81 422.97 107.7 25.94 43.43 9.61 141.95-12.41 173.67-24.1 34.71-127.59 78.61-177.4 67.24-39.1-8.93-36.3-71.21-101.78-97.95-57.01-23.27-192.73-26.37-246.4-3.89z"/>
		</clipPath>
		<radialGradient id="g7" cx="511.2" cy="485.4" r="506.2" gradientUnits="userSpaceOnUse">
			<stop offset="0" stop-color="#00ffff"/>
			<stop offset=".5" stop-color="#00ffff"/>
			<stop offset="1" stop-color="#003da4"/>
		</radialGradient>
		<radialGradient id="g8" cx="511.2" cy="485.4" r="506.2" gradientUnits="userSpaceOnUse">
			<stop offset="0" stop-color="#00ffff"/>
			<stop offset=".5" stop-color="#00ffff"/>
			<stop offset="1" stop-color="#003da4"/>
		</radialGradient>
		<linearGradient id="g9" x1="821" y1="389.7" x2="788.5" y2="239.7" gradientUnits="userSpaceOnUse">
			<stop offset="0" stop-color="#ffffff" stop-opacity=".6"/>
			<stop offset="1" stop-color="#ffffff" stop-opacity="0"/>
		</linearGradient>
		<linearGradient id="g10" x1="194" y1="389.7" x2="226.5" y2="239.7" gradientUnits="userSpaceOnUse">
			<stop offset="0" stop-color="#ffffff" stop-opacity=".4"/>
			<stop offset="1" stop-color="#ffffff" stop-opacity="0"/>
		</linearGradient>
		<linearGradient id="g11" x1="152.1" y1="278.6" x2="243.4" y2="362.3" gradientUnits="userSpaceOnUse">
			<stop offset="0" stop-color="#ffffff" stop-opacity=".9"/>
			<stop offset="1" stop-color="#ffffff" stop-opacity="0"/>
		</linearGradient>
		<linearGradient id="g12" x1="720.6" y1="408" x2="322.1" y2="487.6" gradientUnits="userSpaceOnUse">
			<stop offset="0" stop-color="#ffffff" stop-opacity=".8"/>
			<stop offset="1" stop-color="#4b4b4b" stop-opacity=".8"/>
		</linearGradient>
	</defs>
	<style>
		.s0 { fill: none } 
		.s1 { fill: #000000 } 
		.s2 { fill: url(#g1) } 
		.s3 { fill: url(#g2) } 
		.s4 { fill: url(#g3) } 
		.s5 { fill: url(#g4) } 
		.s6 { fill: url(#g5) } 
		.s7 { opacity: .6;fill: #ffffff } 
		.s8 { fill: url(#g6) } 
		.s9 { fill: url(#g7) } 
		.s10 { fill: url(#g8) } 
		.s11 { fill: url(#g9) } 
		.s12 { fill: url(#g10) } 
		.s13 { fill: url(#g11) } 
		.s14 { fill: url(#g12) } 
	</style>
	<g id="Layer">
		<g id="ArtBoard6">
			<path id="Layer" class="s0" d="m-490-578h2000v2000h-2000z"/>
			<g id="Layer">
				<g id="Layer">
					<path id="Layer" fill-rule="evenodd" class="s1" d="m514.4 578.7l132.1-44.7c16.4 4.4 20.1 20.3 20.1 20.3 20.3 32.4-125 196.6-79.1 210.5 92.3 27.9 104.1 68.3 104.1 68.3-67.8-47.1-134.7 8.2-186.6 7.7-44.9-0.4-95.2-60.7-182.9-12.6 0 0-0.1-51.4 122.4-70.4 49.8-7.8-120.2-150.9-93-203.5 0 0 3.3-15.6 20.2-20.3 26.5-7.3 142.7 44.7 142.7 44.7z"/>
				</g>
				<g id="Layer">
					<path id="Layer" fill-rule="evenodd" class="s2" d="m510.5 553.9c37.9 0 76.2-32 136-19.9-6.5 32-47.2 41.9-68.3 50.7-45.9 19.1-62.5 48.1-69.3 103-5.2-54.4-17.1-95.1-93.2-110.8-39-8.1-44-42.9-44-42.9 44-10.5 100.9 19.9 138.8 19.9z"/>
				</g>
				<g id="Layer">
					<path id="Layer" fill-rule="evenodd" class="s3" d="m351.5 554.3c15.2 32.5 39.9 56.7 67.7 66.8 32.8 11.8 76.4 40.1 76.4 78.4 0 46.5-29.5 64.2-74.1 77-31.7 9.2-63.5 20.8-99.4 51.7 0 0-147.5-39.1-136.7-154.4 12.2-131.3 166.1-119.5 166.1-119.5z"/>
				</g>
				<g id="Layer">
					<path id="Layer" fill-rule="evenodd" class="s4" d="m832.9 675.8c10.8 115.4-141.3 157.3-141.3 157.3-35.9-30.9-63.6-39.6-94.4-51.6-38.9-15.1-73.5-29.7-73.5-74.2 0-49.3 35.1-69.2 67.4-82.7 39.1-16.4 56-36.8 75.7-70.6 0 0 153.8-9.4 166.1 121.8z"/>
				</g>
				<g id="Layer">
					<path id="Layer" fill-rule="evenodd" class="s5" d="m346.8 868.4c11.7-30.3 66.3-73.2 119.8-67.1 24.1 2.7 51.4 1.4 83.6 0 49.4-2.2 110.6 40.3 118.5 72.4 5.2 21 5.3 46.6-6 67-19.7 35.7-61.3 82.8-152.6 82.8-85.4 0-139.4-39-159.3-77.5-11-21.3-12.5-55.6-4-77.6z"/>
				</g>
				<g id="Layer">
					<path id="Layer" fill-rule="evenodd" class="s6" d="m54.4 132.8c33.8-58.8 275.2-118.7 483.5-111.8 208.3 7 384.1 73.2 423.6 105.3 33.4 27.1 29.1 181.4 0 227-38.6 60.6-197.8 116.1-261 102-39-8.7-17.4-76.1-89.8-102-76-27.1-175.8-17-222.1 5.2-46.1 22.1-31.9 96.8-87.1 96.8-34.2 0-193.3-10-239.5-102-33.8-67.2-35.3-172.4-7.6-220.5z"/>
					<path id="Layer" fill-rule="evenodd" class="s7" d="m126.2 415.2c-27.2-14.7-50.7-34.6-64.5-61.7-16-31.5-25-71.4-27.2-109.9-2.5-43.8 3.8-85.8 18.4-111.7 17.1-30.4 88.4-62 182.3-84.6 89.9-21.7 200.3-35.4 302.9-32.8 98.4 2.7 189.7 18.5 262.9 38.1 39.6 10.6 73.9 22.4 101.2 33.7 30.7 12.7 52.8 24.9 64 34.2 6.6 5.4 12.1 15 16.1 27.7 5.6 17.6 8.5 41.5 9 67.1 0.9 53.6-8.9 114.6-25.9 140.5-19.9 30.2-69.6 58.9-122.6 78.2-53.6 19.4-110.4 29.4-142.4 21.9-24.5-5.7-25-34.2-39.8-61.3-3.7-6.5-8.2-13-14.1-19-8.5-8.7-19.8-16.4-35.8-22.1-34.7-12.4-74.3-17-111.5-16.2-44.4 0.9-85.4 9.3-110.5 21.4-31.7 15.2-34.8 55.3-51.7 78.8-7.7 10.7-18.2 18-35.5 18-22.1 0-96.7-4.2-159-32.2q-7.9-3.6-15.5-7.7c64.9 34.8 150.5 39.7 174.5 39.7 55.2 0 41-74.7 87.1-96.8 46.3-22.2 146.1-32.3 222.1-5.2 26.6 9.5 40.5 24.6 49.4 40.4l0.5 0.9 0.2 0.4c14.6 26.8 15.4 54.9 39.7 60.3 63.2 14.1 222.4-41.4 261-102 29.1-45.6 33.4-199.9 0-227-39.5-32.1-215.3-98.3-423.6-105.3-208.3-6.9-449.7 53-483.5 111.8-27.7 48.1-26.2 153.3 7.6 220.5 13.6 27.2 37 47.2 64.2 61.9z"/>
				</g>
				<g id="Layer">
					<path id="Layer" fill-rule="evenodd" class="s8" d="m388.6 304.3c-75.9 31.8-67.6 84.5-98.5 97.5-23.3 9.7-150.2 1.7-182.1-62.5-31.2-63.2-33.1-153.9-5.2-185.2 32-35.9 158.6-97.7 400.9-96.6 226 1.1 403.3 74.8 422.9 107.7 26 43.4 9.6 142-12.4 173.7-24.1 34.7-127.6 78.6-177.4 67.2-39.1-8.9-36.3-71.2-101.8-97.9-57-23.3-192.7-26.4-246.4-3.9z"/>
					<g id="Clip-Path" clip-path="url(#cp1)">
						<g id="Layer">
							<g id="Layer">
								<path id="Layer" fill-rule="evenodd" class="s9" d="m108 339.3c-29.6-59.4-34.7-151.3-5.2-185.2 32.7-37.6 154.4-88.3 335.3-95.3-152.8 26.6-278.6 137.8-330.1 280.5z"/>
							</g>
							<g id="Layer">
								<path id="Layer" fill-rule="evenodd" class="s10" d="m572.3 60.1c174.8 10.6 334.7 72.2 354.3 105.1 26 43.4 9.7 142.9-12.4 173.7-52.8-146-184.2-255.8-341.9-278.8z"/>
							</g>
							<path id="Layer" fill-rule="evenodd" class="s11" d="m383.6 306.5c0 0 123-75.7 324.5-2.9 166 59.9 227.9-29.2 227.9-29.2 0 0-4 53.7-28 76.7-23.9 22.9-112.8 66.6-169 56.9-46.3-8.1-39.9-90.1-136-108.2-132.1-24.9-219.4 6.7-219.4 6.7z"/>
							<g id="Layer">
								<path id="Layer" fill-rule="evenodd" class="s12" d="m412 299.8c-96 18.1-84.6 99-130.9 107-56.2 9.7-131.9-17.6-158.6-43.7-29-28.2-35.6-91.1-35.6-91.1 0 0 54 91.5 220.1 31.6 201.5-72.8 324.5 2.9 324.5 2.9 0 0-87.4-31.6-219.5-6.7z"/>
							</g>
							<path id="Layer" fill-rule="evenodd" class="s13" d="m489.9 146.8c-134.4 19.8-250.7 71-228.6 220.7-108.4 4.4-148.6-47.8-144.4-141.7 66.1-55.2 171-100.8 373-79z"/>
						</g>
					</g>
					<path id="Layer" fill-rule="evenodd" class="s1" d="m323.3 374.9c-8.7 15.8-16.1 28.4-30.1 34.2-12.3 5.2-51.9 6.3-92.7-3-41-9.4-82.8-29.2-99.6-63.3-19.4-39.1-27.9-88.5-25.3-128.7 1.8-28.1 9.1-51.7 21.2-65.3 13.3-14.9 42.2-34.4 88.3-52 67.3-25.7 171.9-48 318.6-47.3 159.6 0.8 295.2 37.5 368.9 70.9 33.5 15.1 54.6 30.2 60.9 40.7 11 18.5 15.2 46.2 14.3 75.1-1.3 42.6-13.2 87.4-27 107.3-12.7 18.2-45.9 39.2-82.7 53.7-36.8 14.6-77 22.7-103.1 16.7-17.7-4-28.3-17.2-38.8-34.2-13.2-21.3-26.9-48.9-64.2-64.1-55.6-22.7-187.9-25.9-240.3-3.9-43.1 18-57.5 43.3-68.4 63.2zm311.7-66.7c65.5 26.7 62.7 89 101.8 97.9 49.8 11.4 153.3-32.5 177.4-67.2 22-31.7 38.4-130.3 12.4-173.7-19.6-32.9-196.9-106.6-422.9-107.7-242.3-1.1-368.9 60.7-400.9 96.6-27.9 31.3-26 122 5.2 185.2 31.9 64.2 158.8 72.2 182.1 62.5 30.9-13 22.6-65.7 98.5-97.5 53.7-22.5 189.4-19.4 246.4 3.9z"/>
				</g>
				<g id="Layer">
					<path id="Layer" fill-rule="evenodd" class="s14" d="m611.3 390c41.4 33.8 44.1 74.9 38.8 115.4-75.2-18.3-78.5 21.4-138.9 21.4-60.4 0-86.7-39.2-147-24.7-10.1-49.1 12.4-90.1 47.9-115.6 40.9-29.3 165.8-23.8 199.2 3.5z"/>
				</g>
			</g>
		</g>
	</g>
</svg>