<?xml version="1.0" encoding="UTF-8" standalone="no"?>
<!DOCTYPE svg PUBLIC "-//W3C//DTD SVG 1.1//EN" "http://www.w3.org/Graphics/SVG/1.1/DTD/svg11.dtd">
<svg viewBox="0 0 2000 2000" version="1.1"
  xmlns="http://www.w3.org/2000/svg"
  xmlns:xlink="http://www.w3.org/1999/xlink" xml:space="preserve"
  xmlns:serif="http://www.serif.com/" style="fill-rule:evenodd;clip-rule:evenodd;stroke-linejoin:round;stroke-miterlimit:2;">
  <g transform="matrix(1,0,0,1,-2098,0)">
    <g id="ArtBoard2" transform="matrix(1,0,0,1,-0.989268,0)">
      <clipPath id="_clip1">
        <rect x="2098.99" y="0" width="2000" height="2000"/>
      </clipPath>
      <g clip-path="url(#_clip1)">
        <g transform="matrix(1,0,0,1,0.989268,0)">
          <circle cx="3098" cy="1000" r="1000" style="fill:transparent;"/>
        </g>
        <g transform="matrix(1.38568,0,0,1.38568,-1156.21,-447.673)">
          <path fill="red" d="M3070.84,323.07C3469.14,323.07 3792.5,646.438 3792.5,1044.74C3792.5,1443.04 3469.14,1766.4 3070.84,1766.4C2672.54,1766.4 2349.17,1443.04 2349.17,1044.74C2349.17,646.438 2672.54,323.07 3070.84,323.07ZM2895.6,1526.13C2908.09,1493.79 2966.29,1448.11 3023.27,1454.58C3049.04,1457.51 3078.09,1456.12 3112.42,1454.58C3165.04,1452.22 3230.28,1497.5 3238.75,1531.79C3244.28,1554.12 3244.4,1581.39 3232.35,1603.23C3211.39,1641.25 3166.99,1691.47 3069.72,1691.47C2978.64,1691.47 2921.04,1649.91 2899.87,1608.79C2888.18,1586.09 2886.55,1549.54 2895.6,1526.13ZM3236.72,1191.03C3215.72,1227.03 3197.71,1248.78 3155.93,1266.28C3121.6,1280.66 3084.16,1301.85 3084.16,1354.42C3084.16,1401.82 3121.06,1417.41 3162.5,1433.52C3195.33,1446.28 3224.89,1455.52 3263.16,1488.49C3263.16,1488.49 3425.19,1443.83 3413.7,1320.85C3400.63,1180.95 3236.72,1191.03 3236.72,1191.03ZM2900.59,1191.32C2916.81,1225.93 2943.11,1251.72 2972.78,1262.46C3007.79,1275.14 3054.24,1305.26 3054.24,1346.11C3054.24,1395.67 3022.75,1414.5 2975.25,1428.19C2941.41,1437.94 2907.53,1450.29 2869.26,1483.26C2869.26,1483.26 2712.03,1441.63 2723.52,1318.65C2736.6,1178.76 2900.59,1191.32 2900.59,1191.32ZM2922.16,1169.65C2922.16,1169.65 2927.51,1206.73 2969.07,1215.35C3050.19,1232.17 3062.9,1275.5 3068.44,1333.46C3075.68,1274.94 3093.34,1244.08 3142.28,1223.68C3164.77,1214.31 3208.16,1203.73 3215.05,1169.65C3151.34,1156.77 3110.53,1190.87 3070.09,1190.87C3029.66,1190.87 2969.07,1158.43 2922.16,1169.65ZM2583.89,741.995C2619.95,679.363 2877.26,615.428 3099.35,622.859C3321.39,630.288 3508.8,700.822 3550.88,735.027C3586.49,763.98 3581.93,928.462 3550.88,977.097C3509.7,1041.6 3340,1100.78 3272.66,1085.78C3231.03,1076.51 3254.05,1004.68 3176.96,977.097C3095.96,948.111 2989.48,958.881 2940.2,982.554C2891.08,1006.15 2906.21,1085.78 2847.35,1085.78C2810.9,1085.78 2641.26,1075.16 2591.99,977.097C2555.99,905.448 2554.4,793.234 2583.89,741.995ZM2641.08,962.094C2609.54,898.758 2604.07,800.815 2635.46,764.741C2670.36,724.644 2819.76,667.008 2992.19,667.008C2829.34,695.32 2695.97,810.015 2641.08,962.094ZM3500.45,961.681C3523.97,928.855 3541.33,822.846 3513.68,776.555C3492.74,741.496 3303.45,670.384 3137.4,665.075C3305.58,689.675 3444.11,806.066 3500.45,961.681Z"/>
        </g>
      </g>
    </g>
  </g>
</svg>
